<svg width="681" height="100" viewBox="0 0 681 100" fill="none" xmlns="http://www.w3.org/2000/svg">
<path d="M88 23.594C87.5418 24.8904 86.6049 25.8273 85.6577 26.7724C77.4909 34.9234 69.327 43.0786 61.1657 51.2379C60.9021 51.4591 60.6203 51.6578 60.3233 51.8316C60.6932 52.2261 60.8904 52.448 61.0959 52.6534C67.1463 58.7061 73.1925 64.7622 79.2347 70.8218C79.7091 71.3046 80.0834 71.8765 80.336 72.5044C82.2387 77.2984 84.1105 82.1046 85.9515 86.9232C86.1792 87.4719 86.2688 88.068 86.2124 88.6593C86.0481 89.7996 84.9796 90.4694 83.8454 90.2269C83.2633 90.0844 82.6931 89.8969 82.14 89.666C77.5601 87.893 72.9782 86.1199 68.4085 84.3242C67.8542 84.1054 67.3481 83.7802 66.9189 83.3668C62.7835 79.2687 58.6617 75.1541 54.5537 71.0231C54.3565 70.8321 54.1744 70.626 54.0092 70.4067C53.8271 70.166 53.7374 69.8679 53.7563 69.5666C53.7753 69.2653 53.9017 68.9808 54.1125 68.7648C54.3234 68.5487 54.6047 68.4154 54.9055 68.3891C55.2062 68.3628 55.5064 68.4452 55.7516 68.6213C55.9931 68.8 56.218 69.0001 56.4235 69.2192C60.348 73.1434 64.2704 77.0676 68.1353 80.9301L71.7556 77.3203C71.4684 77.1679 71.1978 76.9861 70.9481 76.7779C57.7775 63.6206 44.6104 50.4571 31.4466 37.2875C31.1884 37.0445 30.9506 36.7806 30.7357 36.4986C30.5605 36.2546 30.4782 35.9561 30.5038 35.6569C30.5293 35.3576 30.6609 35.0773 30.8749 34.8666C31.0889 34.6558 31.3711 34.5285 31.6708 34.5075C31.9704 34.4865 32.2676 34.5733 32.5089 34.7522C32.7893 34.9691 33.0518 35.2082 33.2938 35.4672C46.463 48.63 59.6295 61.7962 72.7932 74.9658C72.9922 75.1856 73.1775 75.4176 73.348 75.6602C74.5808 74.4275 75.7006 73.2913 76.7567 72.2271C61.0301 56.4934 45.174 40.6302 29.3488 24.802L25.9072 28.2455C26.5236 28.8105 27.2057 29.3919 27.8386 30.0206C28.5618 30.7397 28.6214 31.4588 28.0667 32.0402C27.5119 32.6216 26.7393 32.5744 25.9853 31.8348C25.3689 31.2184 24.7771 30.5733 24.2203 29.9857L20.7273 33.4784C20.8629 33.6222 21.0725 33.8564 21.2944 34.0783C31.2514 44.0346 41.2078 53.9909 51.1635 63.9473C51.3843 64.153 51.5903 64.374 51.7799 64.6088C52.2216 65.2005 52.1908 65.8046 51.6607 66.3079C51.1306 66.8113 50.4916 66.8421 49.9615 66.3531C49.3184 65.7635 48.7615 65.0814 48.0999 64.3664C47.765 64.6828 47.5328 64.8944 47.3109 65.1163C39.11 73.3139 30.9138 81.5129 22.7224 89.7133C21.7937 90.6419 20.8732 91.55 19.5993 91.9979H17.9555C16.698 91.587 15.7816 90.7056 14.8735 89.7893C11.7914 86.6828 8.69089 83.599 5.59858 80.5048C3.47403 78.3763 3.47197 76.1266 5.59858 74.0001C14.0064 65.5861 22.4169 57.1775 30.8302 48.7745C31.0937 48.5506 31.3755 48.3492 31.6727 48.1725C31.3069 47.7842 31.1117 47.5561 30.9062 47.3507C23.2505 39.6927 15.5954 32.0368 7.94094 24.3829C4.99656 21.4346 4.27125 17.5392 5.98075 14.0116C8.48542 8.83619 15.346 7.45759 19.6609 11.2729C20.0102 11.579 20.341 11.9057 20.6698 12.2344C28.231 19.791 35.7903 27.3497 43.3474 34.9104C43.5385 35.1035 43.7111 35.3213 44.0255 35.6706C44.7713 34.8857 45.4247 34.1215 46.1644 33.4558C46.4993 33.1538 47.0212 32.8723 47.4363 32.9011C47.653 32.9418 47.8569 33.0337 48.0309 33.1692C48.205 33.3046 48.3442 33.4796 48.4369 33.6797C48.4867 33.9078 48.4902 34.1435 48.4471 34.3729C48.4041 34.6023 48.3153 34.8207 48.1862 35.0152C47.7876 35.5905 47.2246 36.0548 46.7068 36.5417C46.4366 36.7758 46.154 36.9953 45.8603 37.1992L58.5727 49.8942L60.9993 47.4287C60.3603 46.8 59.5836 46.0399 58.8131 45.2776C58.5731 45.0531 58.3448 44.8166 58.1289 44.5688C57.6255 43.9524 57.6399 43.2025 58.1453 42.7197C58.3867 42.4896 58.7086 42.3633 59.0421 42.3679C59.3756 42.3725 59.6939 42.5077 59.9288 42.7444C60.6377 43.3854 61.2993 44.0778 61.9712 44.7578C62.2938 45.0845 62.5876 45.4338 62.8567 45.7173L65.8915 42.7074C65.7313 42.5328 65.5402 42.3129 65.3368 42.1075C63.4054 40.1721 61.4726 38.2381 59.5384 36.3054C59.3366 36.1182 59.1536 35.9118 58.9919 35.6891C58.6097 35.122 58.6241 34.5324 59.1049 34.0454C59.5857 33.5585 60.1671 33.5092 60.7486 33.9057C60.9901 34.0837 61.2149 34.2831 61.4205 34.5015L67.2127 40.3077C67.4017 40.4967 67.6031 40.6713 67.751 40.809C68.7476 39.8105 69.7071 38.8469 70.7755 37.7785C70.0728 37.0985 69.29 36.3404 68.5154 35.5925C68.2791 35.3645 68.0407 35.1364 67.8291 34.8878C67.3421 34.3105 67.3298 33.5934 67.7798 33.1045C67.8955 32.9757 68.0364 32.8718 68.1937 32.7994C68.3511 32.727 68.5215 32.6874 68.6947 32.6832C68.8678 32.679 69.04 32.7101 69.2007 32.7748C69.3613 32.8395 69.5071 32.9363 69.629 33.0593C70.3009 33.6592 70.9276 34.3105 71.5543 34.9597C71.9118 35.3316 72.2303 35.7404 72.4933 36.0466L75.6205 32.9278C74.6918 32.0217 73.6911 31.091 72.7439 30.1069C71.9981 29.3282 72.2344 28.2167 73.1549 27.9147C73.7815 27.7092 74.2664 27.9845 74.6938 28.4222C75.5917 29.3405 76.4937 30.2548 77.3115 31.0931L80.4922 27.9167C80.2328 27.8016 79.9908 27.6509 79.773 27.4688C77.8437 25.5684 75.9369 23.6494 74.0199 21.7326C73.8201 21.5447 73.6384 21.3383 73.4775 21.1162C73.2977 20.885 73.2119 20.5945 73.237 20.3027C73.2621 20.011 73.3964 19.7395 73.6131 19.5424C74.0897 19.0473 74.6712 18.998 75.2568 19.3739C75.4991 19.5516 75.7235 19.7525 75.9266 19.9739C78.0512 22.101 80.1744 24.2323 82.2962 26.3676C83.227 25.4574 84.1454 24.613 85.0063 23.6967C85.6228 23.0392 85.5241 22.3243 84.8009 21.5929C83.7735 20.5348 82.7174 19.5013 81.6736 18.4556C79.3354 16.1175 76.9965 13.7787 74.6569 11.4393C73.5391 10.3216 72.9371 10.3196 71.8296 11.427C65.3916 17.8645 58.9535 24.3021 52.5155 30.7397C51.5292 31.7259 50.8553 31.8676 50.1998 31.2266C49.5444 30.5856 49.6964 29.8891 50.6703 28.9132L69.9845 9.60048C72.1173 7.46992 74.3527 7.46992 76.4876 9.60048C79.7545 12.8446 83.0277 16.0641 86.233 19.3513C86.9521 20.0889 87.4185 21.0731 88.0021 21.9462L88 23.594ZM33.3739 49.9291C33.2363 50.0544 33.1109 50.1592 32.9979 50.2722C24.4326 58.8356 15.8714 67.3962 7.31424 75.954C6.35881 76.9094 6.36703 77.5792 7.33069 78.5468C9.91549 81.1424 12.5058 83.7332 15.1015 86.3192C15.9522 87.1698 16.7884 88.0347 17.6596 88.8648C18.3459 89.5202 19.0692 89.5921 19.7143 88.9962C20.6266 88.1436 21.469 87.217 22.3669 86.2966C20.2301 84.1626 18.1007 82.0341 15.9789 79.9111C15.7376 79.6891 15.5225 79.4403 15.3378 79.1694C15.1802 78.9409 15.1092 78.6637 15.1379 78.3876C15.1665 78.1115 15.2928 77.8546 15.494 77.6634C15.9378 77.2011 16.4864 77.0861 17.0556 77.4333C17.3046 77.6009 17.5335 77.7967 17.7377 78.0168C19.6938 79.9672 21.6471 81.9197 23.5977 83.8743C23.8032 84.0797 24.0086 84.2852 24.0744 84.3324L27.101 81.2917L24.3785 78.6208C23.9367 78.1873 23.7107 77.6798 23.9552 77.0676C24.3086 76.1862 25.3627 75.9951 26.1188 76.7224C27.101 77.6675 28.0338 78.666 28.9399 79.5988L32.0528 76.4676C31.7857 76.2478 31.4096 75.9746 31.0788 75.6458C30.3905 74.9822 29.7001 74.3165 29.0591 73.6077C28.9367 73.4869 28.8403 73.3423 28.7757 73.1828C28.7112 73.0234 28.6799 72.8524 28.6837 72.6805C28.6876 72.5085 28.7265 72.3392 28.7981 72.1828C28.8697 72.0264 28.9725 71.8862 29.1002 71.771C29.5933 71.3169 30.3042 71.3292 30.8816 71.8182C31.1302 72.0237 31.3583 72.2682 31.5863 72.5044C32.3425 73.2831 33.0924 74.0638 33.6986 74.6925L36.7395 71.6374L30.6268 65.519C30.3856 65.2968 30.161 65.0571 29.9549 64.8019C29.5275 64.2185 29.5317 63.6062 30.0515 63.0967C30.5713 62.5871 31.1775 62.5954 31.7589 63.0268C31.9719 63.1972 32.1718 63.3833 32.3569 63.5836C34.2746 65.5012 36.1923 67.4146 38.11 69.324C38.3155 69.5294 38.5353 69.7185 38.6401 69.8171L41.679 66.8627C40.7564 65.9463 39.7887 65.0136 38.8641 64.052C38.1388 63.2919 38.2826 62.2153 39.1291 61.8639C39.7599 61.601 40.2962 61.8126 40.7585 62.2749C41.6954 63.2241 42.6365 64.1671 43.4419 64.9807L45.9445 62.4967L33.3739 49.9291ZM13.3674 26.3758L22.0361 17.7077C20.6204 16.1812 19.2602 14.4841 17.6637 13.0501C15.5885 11.1866 12.2373 11.2626 10.1066 12.9864C7.7293 14.9094 6.80057 18.1597 8.39502 20.5882C9.79837 22.7249 11.7318 24.5103 13.3674 26.3758ZM83.3564 87.3567L78.4991 74.8651L70.868 82.506L83.3564 87.3567ZM24.2449 19.6246L15.6974 28.1715C16.7248 29.1988 17.8117 30.2938 18.7959 31.2821L27.366 22.7331C26.3387 21.712 25.262 20.6375 24.2449 19.6246Z" fill="#D83434" stroke="#D83434"/>
<path d="M173.496 79H182.106L156.03 21.6H147.912L121.918 79H130.364L136.678 64.65H167.182L173.496 79ZM139.548 58.09L151.93 29.964L164.312 58.09H139.548ZM197.065 42.838V35.54H189.521V79H197.393V57.352C197.393 47.84 202.641 42.674 211.087 42.674C211.661 42.674 212.235 42.674 212.891 42.756V35.13C205.265 35.13 199.853 37.754 197.065 42.838ZM241.134 79.492C248.924 79.492 255.402 76.212 258.846 70.144L252.86 66.372C250.072 70.636 245.808 72.604 241.052 72.604C232.524 72.604 226.128 66.7 226.128 57.27C226.128 48.004 232.524 42.018 241.052 42.018C245.808 42.018 250.072 43.986 252.86 48.25L258.846 44.396C255.402 38.328 248.924 35.13 241.134 35.13C227.768 35.13 218.174 44.314 218.174 57.27C218.174 70.226 227.768 79.492 241.134 79.492ZM353.298 79L353.216 21.6H346.492L322.876 61.944L298.932 21.6H292.208V79H300.08V37.426L320.826 72.03H324.598L345.344 37.18L345.426 79H353.298ZM408.654 57.516C408.654 44.15 399.716 35.13 387.17 35.13C374.624 35.13 365.358 44.396 365.358 57.27C365.358 70.226 374.706 79.492 388.728 79.492C395.944 79.492 401.93 77.032 405.866 72.44L401.52 67.356C398.322 70.882 394.058 72.604 388.974 72.604C380.364 72.604 374.214 67.52 373.23 59.894H408.49C408.572 59.156 408.654 58.172 408.654 57.516ZM387.17 41.772C394.796 41.772 400.29 46.938 401.11 54.236H373.23C374.05 46.856 379.626 41.772 387.17 41.772ZM434.21 35.13C427.24 35.13 420.762 37.098 416.252 40.706L419.532 46.61C422.894 43.74 428.142 41.936 433.308 41.936C441.098 41.936 444.952 45.79 444.952 52.432V53.99H432.488C419.532 53.99 415.022 59.73 415.022 66.7C415.022 74.244 421.254 79.492 431.094 79.492C437.9 79.492 442.738 77.196 445.362 73.26V79H452.824V52.76C452.824 40.87 446.1 35.13 434.21 35.13ZM432.406 73.424C426.42 73.424 422.812 70.718 422.812 66.372C422.812 62.682 425.026 59.648 432.816 59.648H444.952V65.716C442.984 70.718 438.31 73.424 432.406 73.424ZM479.856 79.492C491.418 79.492 498.634 74.49 498.634 66.618C498.634 49.726 471.082 58.09 471.082 47.84C471.082 44.396 474.444 41.854 481.332 41.854C485.596 41.854 489.942 42.756 493.878 45.298L497.24 39.066C493.468 36.606 487.072 35.13 481.414 35.13C470.262 35.13 463.292 40.378 463.292 48.168C463.292 65.47 490.762 57.024 490.762 66.782C490.762 70.472 487.728 72.686 480.43 72.686C474.772 72.686 468.868 70.8 465.178 68.176L461.898 74.408C465.506 77.278 472.64 79.492 479.856 79.492ZM541.108 35.54V58.008C541.108 67.356 535.86 72.44 527.66 72.44C520.198 72.44 515.934 68.176 515.934 59.648V35.54H508.062V60.55C508.062 73.342 515.524 79.492 526.758 79.492C532.908 79.492 538.32 76.95 541.518 72.44V79H548.98V35.54H541.108ZM571.51 42.838V35.54H563.966V79H571.838V57.352C571.838 47.84 577.086 42.674 585.532 42.674C586.106 42.674 586.68 42.674 587.336 42.756V35.13C579.71 35.13 574.298 37.754 571.51 42.838ZM635.916 57.516C635.916 44.15 626.978 35.13 614.432 35.13C601.886 35.13 592.62 44.396 592.62 57.27C592.62 70.226 601.968 79.492 615.99 79.492C623.206 79.492 629.192 77.032 633.128 72.44L628.782 67.356C625.584 70.882 621.32 72.604 616.236 72.604C607.626 72.604 601.476 67.52 600.492 59.894H635.752C635.834 59.156 635.916 58.172 635.916 57.516ZM614.432 41.772C622.058 41.772 627.552 46.938 628.372 54.236H600.492C601.312 46.856 606.888 41.772 614.432 41.772ZM659.311 79.492C670.873 79.492 678.089 74.49 678.089 66.618C678.089 49.726 650.537 58.09 650.537 47.84C650.537 44.396 653.899 41.854 660.787 41.854C665.051 41.854 669.397 42.756 673.333 45.298L676.695 39.066C672.923 36.606 666.527 35.13 660.869 35.13C649.717 35.13 642.747 40.378 642.747 48.168C642.747 65.47 670.217 57.024 670.217 66.782C670.217 70.472 667.183 72.686 659.885 72.686C654.227 72.686 648.323 70.8 644.633 68.176L641.353 74.408C644.961 77.278 652.095 79.492 659.311 79.492Z" fill="#14132C"/>
</svg>
